<?xml version="1.0" standalone="no"?>
<!DOCTYPE svg PUBLIC "-//W3C//DTD SVG 20010904//EN"
 "http://www.w3.org/TR/2001/REC-SVG-20010904/DTD/svg10.dtd">
<svg version="1.0" xmlns="http://www.w3.org/2000/svg"
 width="1200.000000pt" height="1200.000000pt" viewBox="0 0 1200.000000 1200.000000"
 preserveAspectRatio="xMidYMid meet">
<metadata>
Created by potrace 1.14, written by Peter Selinger 2001-2017
</metadata>
<g transform="translate(0.000000,1200.000000) scale(0.100000,-0.100000)"
fill="#000000" stroke="none">
<path d="M2865 6824 c-26 -11 -76 -17 -145 -18 -127 -3 -195 -26 -267 -90 -26
-24 -70 -51 -98 -61 -71 -26 -95 -45 -140 -112 -22 -32 -47 -62 -55 -67 -8 -5
-42 -36 -76 -70 -63 -64 -104 -145 -104 -206 0 -20 -8 -35 -29 -49 -49 -35
-71 -81 -71 -147 0 -61 9 -83 57 -135 l23 -26 -27 -49 c-23 -41 -28 -61 -28
-119 1 -77 14 -110 66 -166 21 -22 33 -47 37 -74 7 -56 34 -105 81 -148 45
-40 93 -57 165 -57 37 0 57 -6 83 -26 74 -56 146 -68 211 -35 47 24 66 45 91
101 17 39 26 47 70 63 28 10 66 32 85 51 l35 33 37 -38 c62 -64 146 -102 235
-107 156 -9 286 61 361 195 l24 42 47 -33 c218 -155 524 -10 544 257 4 52 1
89 -11 130 -12 41 -15 75 -10 121 6 54 3 71 -15 109 -12 25 -33 53 -47 61 -21
15 -23 21 -18 56 5 27 1 55 -10 85 -17 45 -75 105 -101 105 -7 0 -19 17 -26
38 -38 117 -170 218 -301 229 -51 5 -61 10 -83 38 -32 43 -100 69 -161 62 -37
-4 -53 0 -80 18 -44 30 -104 40 -148 25 -28 -9 -39 -8 -58 3 -37 24 -98 28
-143 11z m132 -34 c26 -15 38 -17 59 -10 41 16 96 12 132 -10 17 -11 32 -24
32 -28 0 -5 -75 -82 -166 -171 -150 -148 -168 -162 -192 -156 -15 4 -28 8 -30
10 -4 3 -32 296 -32 333 0 12 6 22 14 22 7 0 27 7 42 15 40 21 103 19 141 -5z
m-217 -12 c6 -47 30 -319 30 -334 0 -11 -10 -26 -23 -33 -22 -12 -35 -4 -190
114 -183 139 -183 138 -116 186 64 45 139 69 222 69 42 0 77 -1 77 -2z m581
-39 c36 -12 75 -43 90 -71 6 -12 -1 -53 -23 -133 -29 -100 -36 -115 -53 -113
-15 2 -28 32 -67 153 -26 83 -48 153 -48 157 0 6 22 12 56 17 6 0 26 -4 45
-10z m-66 -177 c47 -143 47 -143 28 -165 -11 -12 -23 -30 -26 -39 -6 -16 -23
-18 -174 -18 -189 0 -210 3 -219 33 -6 18 20 47 162 184 93 89 172 159 175
155 4 -4 28 -71 54 -150z m341 53 c29 -13 73 -42 98 -65 41 -38 86 -110 86
-138 0 -6 -20 -25 -45 -42 -42 -29 -47 -30 -67 -16 -12 9 -36 16 -53 16 -29 0
-33 6 -98 135 -37 74 -67 138 -67 141 0 12 94 -8 146 -31z m-1236 -125 c0 -93
4 -150 10 -150 6 0 10 55 10 145 0 80 2 145 5 145 3 0 77 -55 166 -122 147
-112 160 -124 154 -148 -4 -14 -8 -26 -9 -27 -1 -1 -51 -12 -112 -23 -121 -23
-139 -28 -131 -36 3 -3 59 5 125 17 l119 22 35 -33 c33 -31 34 -35 27 -79 -4
-30 -3 -48 4 -53 6 -4 8 -10 4 -15 -5 -4 -12 -1 -17 7 -7 11 -14 12 -35 2 -14
-7 -25 -18 -23 -26 2 -8 0 -15 -4 -15 -5 -1 -8 2 -8 7 0 4 -52 33 -115 65 -89
44 -115 62 -115 77 0 11 -6 20 -12 20 -9 0 -8 3 2 10 12 7 11 13 -10 34 -26
28 -45 33 -53 14 -4 -10 -8 -10 -15 1 -18 26 -72 -21 -72 -64 0 -9 5 -13 11
-9 8 4 9 0 4 -15 -5 -15 -2 -21 9 -21 9 0 16 -7 16 -15 0 -8 12 -18 27 -21 35
-9 79 15 75 42 -2 17 -1 18 11 2 7 -9 61 -42 120 -73 102 -54 107 -58 107 -89
0 -32 -3 -34 -117 -89 -187 -88 -185 -88 -212 -66 -27 22 -79 25 -106 5 -12
-9 -19 -28 -21 -59 -2 -40 1 -49 23 -67 20 -16 28 -18 34 -8 4 7 11 9 15 5 4
-3 2 -12 -3 -19 -6 -8 -13 -117 -16 -256 -3 -134 -9 -247 -12 -250 -4 -4 -31
-6 -60 -6 -102 3 -192 83 -203 181 -4 38 -14 58 -48 96 -64 71 -75 159 -31
243 27 53 40 58 168 62 65 3 119 8 119 13 0 4 -53 6 -117 3 l-118 -5 178 173
c98 96 175 177 171 181 -4 4 -88 -72 -186 -169 l-179 -177 -35 34 c-66 64 -70
151 -8 218 42 48 54 52 234 92 80 18 147 34 149 35 18 16 -29 10 -164 -21 -87
-20 -160 -34 -162 -31 -11 10 29 117 60 162 19 27 54 65 80 84 25 19 59 53 76
75 16 22 40 53 52 69 21 26 87 64 117 65 9 1 12 -35 12 -149z m1198 -148 c-17
-32 -26 -35 -83 -25 -43 7 -50 12 -57 38 -4 16 -16 36 -27 45 -20 15 -20 16
11 123 l31 107 69 -132 c64 -121 68 -134 56 -156z m282 23 c48 -25 72 -76 68
-144 -3 -55 -1 -60 28 -85 41 -34 67 -97 58 -142 -7 -38 7 -32 -186 -80 -60
-14 -108 -30 -108 -35 0 -11 -9 -12 80 11 120 31 118 25 -14 -35 l-73 -33 5
24 c2 14 0 24 -7 24 -7 0 -9 5 -6 11 4 6 -2 20 -13 32 l-21 22 72 223 c40 122
75 222 80 222 4 0 21 -7 37 -15z m-135 -206 c-36 -112 -64 -211 -62 -221 3
-10 1 -18 -4 -18 -5 0 -9 5 -9 10 0 19 -39 10 -70 -17 l-32 -26 -96 22 c-54
13 -105 25 -114 28 -10 2 -18 0 -18 -5 0 -14 223 -64 246 -55 17 6 17 5 6 -10
-16 -19 -12 -52 6 -52 6 0 12 -4 13 -10 0 -5 5 -15 10 -22 7 -8 4 -13 -10 -18
-18 -5 -30 -25 -16 -25 16 0 55 25 55 36 0 6 14 17 31 23 39 13 42 14 34 1 -3
-5 55 19 129 54 188 90 169 89 196 5 22 -66 23 -78 12 -141 -15 -86 -38 -131
-94 -184 -64 -62 -120 -87 -208 -92 -89 -5 -165 19 -225 71 -36 32 -38 34 -29
72 7 27 16 41 29 43 48 9 89 77 60 99 -10 7 -14 17 -9 24 4 7 3 10 -3 6 -6 -4
-13 2 -16 13 -8 30 -67 27 -98 -4 l-25 -24 -221 61 c-122 34 -220 63 -218 65
2 2 43 14 92 28 48 13 90 29 91 34 2 6 8 10 14 10 5 0 7 -9 3 -19 -7 -24 28
-51 65 -51 36 0 73 28 67 51 -3 11 -1 19 4 19 18 0 9 42 -10 47 -13 3 -18 10
-14 21 5 12 2 14 -12 8 -11 -4 -21 -2 -26 5 -10 17 -62 2 -55 -16 3 -8 1 -15
-4 -15 -6 0 -10 6 -10 13 0 7 -67 73 -150 147 -82 74 -150 137 -150 141 0 38
8 39 201 39 109 0 189 -4 189 -9 0 -5 12 -24 26 -41 l27 -31 -33 -105 c-18
-58 -30 -107 -27 -111 8 -7 17 18 52 131 24 79 28 86 52 86 15 0 36 12 53 30
27 29 29 30 80 20 29 -6 54 -10 56 -10 2 0 4 -9 4 -19 0 -11 4 -23 10 -26 5
-3 -11 -22 -37 -42 -79 -60 -228 -185 -231 -195 -8 -20 19 -1 144 102 115 95
136 109 153 100 64 -34 141 21 127 90 -4 24 0 32 27 49 17 11 33 18 35 16 2
-2 -26 -95 -63 -206z m-705 -24 c143 -130 147 -135 141 -166 -6 -32 -9 -33
-116 -61 l-110 -29 -25 29 c-14 15 -39 46 -57 68 -52 63 -38 22 16 -46 l48
-63 -25 -58 c-18 -42 -31 -59 -44 -59 -11 0 -32 -7 -49 -16 -24 -12 -29 -20
-23 -36 4 -14 2 -18 -5 -14 -26 16 -10 -47 19 -76 30 -29 30 -31 20 -90 -5
-33 -12 -63 -14 -66 -3 -2 -96 -13 -207 -23 -111 -10 -205 -22 -208 -27 -3 -5
-22 -33 -41 -63 -27 -41 -36 -49 -39 -34 -2 11 0 119 4 242 6 200 9 223 25
228 25 8 47 35 55 68 6 21 4 27 -9 27 -9 0 -16 5 -16 11 0 6 8 8 18 5 10 -4
46 5 80 19 34 14 66 25 72 25 5 0 10 -16 10 -35 0 -19 5 -35 10 -35 6 0 10 -5
10 -10 0 -6 -10 -8 -24 -4 -49 12 -77 -85 -36 -126 30 -30 83 -30 114 0 17 17
20 17 79 -6 69 -27 67 -27 67 -15 0 14 -114 53 -133 45 -10 -3 -17 -1 -17 5 0
6 7 11 15 11 18 0 19 23 4 51 -6 12 -17 18 -25 15 -8 -3 -14 -1 -14 4 0 6 6
10 13 10 16 0 123 150 119 167 -2 7 2 13 8 13 5 0 9 -6 8 -12 -2 -9 9 -13 32
-13 24 0 35 5 35 15 1 8 7 14 15 12 40 -9 40 70 0 108 -27 25 -29 32 -24 74 6
43 25 61 67 65 5 1 75 -60 157 -134z m-311 -122 c-5 -15 -33 -58 -61 -95 -59
-80 -80 -85 -89 -20 -6 48 -8 47 79 92 34 18 62 39 62 47 0 8 4 12 10 8 6 -4
6 -15 -1 -32z m465 -223 c138 -39 229 -59 245 -55 24 5 24 4 8 -9 -14 -11 -16
-19 -7 -41 6 -15 19 -34 30 -44 26 -21 15 -85 -15 -88 -11 -2 -130 21 -264 50
-241 53 -245 54 -252 81 -11 39 -30 61 -40 44 -4 -7 -11 -9 -16 -4 -4 4 -1 12
8 17 9 5 26 33 39 63 12 30 27 53 33 51 7 -2 111 -32 231 -65z m-254 -140 c0
-5 -4 -10 -10 -10 -5 0 -10 5 -10 10 0 6 5 10 10 10 6 0 10 -4 10 -10z m570
-10 c0 -5 -4 -10 -10 -10 -5 0 -10 5 -10 10 0 6 5 10 10 10 6 0 10 -4 10 -10z
m-291 -60 c129 -27 236 -51 238 -54 10 -10 -43 -93 -88 -137 -54 -52 -132 -87
-214 -96 -99 -10 -231 46 -291 124 -26 34 -27 38 -17 99 5 38 5 68 0 73 -5 5
-4 12 2 15 6 4 11 2 11 -3 0 -20 36 -11 60 14 15 16 30 23 44 20 12 -3 126
-28 255 -55z m-451 -184 c-21 -18 -57 -38 -80 -45 -45 -14 -67 -35 -68 -63 0
-26 -60 -89 -98 -105 -50 -21 -125 0 -179 49 l-22 20 49 73 49 72 168 15 c242
22 225 23 181 -16z"/>
<path d="M3575 5789 c-4 -6 -5 -13 -2 -16 7 -7 27 6 27 18 0 12 -17 12 -25 -2z"/>
<path d="M7672 6464 c-42 -29 -25 -102 29 -119 58 -19 107 84 57 119 -28 20
-57 20 -86 0z"/>
<path d="M4500 6021 l0 -451 25 0 25 0 2 368 3 367 193 -365 c107 -201 200
-371 207 -379 17 -17 4 -39 235 388 102 187 188 341 193 341 4 0 7 -162 7
-360 l0 -360 55 0 55 0 0 450 0 450 -40 0 c-30 0 -43 -5 -54 -22 -8 -13 -101
-183 -206 -378 -105 -195 -194 -358 -199 -363 -5 -5 -100 164 -213 375 l-204
383 -42 3 -42 3 0 -450z"/>
<path d="M6900 6020 l0 -450 290 0 290 0 0 35 0 35 -230 0 -230 0 -2 413 -3
412 -57 3 -58 3 0 -451z"/>
<path d="M8680 6311 l0 -101 -55 0 c-52 0 -55 -1 -55 -25 0 -24 3 -25 54 -25
l55 0 3 -238 c3 -236 3 -239 28 -275 49 -73 145 -96 228 -56 55 27 62 44 30
76 l-25 24 -35 -35 c-41 -41 -69 -45 -98 -16 -19 19 -20 33 -20 270 l0 250 75
0 c73 0 75 1 75 25 0 24 -2 25 -75 25 l-74 0 -3 98 -3 97 -52 3 -53 3 0 -100z"/>
<path d="M8085 6201 c-69 -32 -105 -86 -105 -157 0 -89 59 -148 189 -190 154
-49 191 -77 191 -142 0 -25 -9 -43 -34 -68 -31 -31 -39 -34 -95 -34 -34 0 -76
6 -94 14 -36 15 -97 79 -97 101 0 11 -12 15 -40 15 -35 0 -40 -3 -40 -24 0
-54 75 -126 153 -147 55 -15 164 -14 217 2 125 38 168 199 78 290 -35 34 -87
59 -176 85 -75 22 -148 59 -156 79 -10 27 -6 79 7 95 27 36 62 50 118 50 66 0
116 -27 139 -77 12 -27 21 -33 48 -33 28 0 32 3 32 25 0 37 -62 101 -117 119
-64 22 -168 20 -218 -3z"/>
<path d="M5673 6198 c3 -7 66 -148 141 -312 75 -164 136 -304 136 -311 0 -23
-81 -200 -97 -212 -25 -19 -67 -16 -96 7 l-26 21 -26 -50 -25 -50 27 -18 c17
-12 46 -18 79 -18 45 0 57 5 84 30 18 17 42 50 55 75 22 45 345 834 345 844 0
12 -58 6 -63 -6 -87 -215 -191 -465 -196 -470 -3 -4 -56 103 -116 237 l-110
245 -59 0 c-43 0 -57 -3 -53 -12z"/>
<path d="M7660 5890 l0 -320 55 0 55 0 0 320 0 320 -55 0 -55 0 0 -320z"/>
<path d="M8045 5280 c-4 -7 232 -10 699 -10 464 0 706 3 706 10 0 7 -240 10
-699 10 -456 0 -702 -3 -706 -10z"/>
<path d="M4423 5253 c197 -2 517 -2 710 0 194 1 33 2 -358 2 -390 0 -549 -1
-352 -2z"/>
</g>
</svg>
